<svg xmlns="http://www.w3.org/2000/svg" viewBox="0 0 1000 1000"><defs><style>.cls-1{fill:#fff;}</style></defs><title>nmonteiro-logo</title><g id="Background"><rect width="1000" height="1000"/></g><g id="Logo"><path class="cls-1" d="M266.52,424.65c31.72,0,44.72.95,63.6,16,7.76,6.19,15.61,17.45,19.34,27.26s5.6,20.91,5.6,33.32a89.38,89.38,0,0,1-5.5,31.74,79.71,79.71,0,0,1-15,25.28c-6.36,7.12-18.22,16.69-37.54,19.09-10.08,1.25-25.86,1.12-25.86,1.12h-9a31.52,31.52,0,0,1,6.11-10.68q4.21-4.92,11.67-5.57c1.53-.08,2.73-.18,3.62-.31s1.88-.26,3-.43c10.15-1.58,20.63-3.46,31.54-16.3,4.59-5.4,7.23-12.49,9.44-20.06a84.78,84.78,0,0,0,3.32-23.88c0-19.39-4.21-34.86-14.62-45.28-12.2-12.2-29.47-13.73-45.37-13.73H252.67V578.49H230.06V424.65Z"/><path class="cls-1" d="M405.57,424.68V551.41q0,14.18-3.21,24.23A59.8,59.8,0,0,1,393,593.72a86.5,86.5,0,0,1-14.83,15q-8.71,7-19.91,14.6l-9.75-12.69q7.67-6.56,14.11-12.17a65.46,65.46,0,0,0,10.89-12.06,52.2,52.2,0,0,0,6.95-14.7A71.32,71.32,0,0,0,383,551.41V424.68Z"/><rect class="cls-1" x="440.62" y="424.68" width="21.99" height="153.81"/><path class="cls-1" d="M596.41,578.49q-18.26-29.83-36.4-59.13T523.6,460l-3.11-7.41.42,7.19V578.49H501.61V424.68H524l62.85,102.61,7.47,12.06,2.69,7.4-.41-7.61V424.68h19.91V578.49Z"/><path class="cls-1" d="M693.4,424.68h22.19l54.35,153.82H745.88L705.22,457.26l-1.45-6.56-1.66,6.77-21.57,64.11-2.28,4.23,2.49-.43h24.48a15.58,15.58,0,0,1,6.95,1.48,18.35,18.35,0,0,1,5.29,3.91,23.71,23.71,0,0,1,3.84,5.5,44.53,44.53,0,0,1,2.59,6.24h-50.2l-12,36h-22.4Z"/></g></svg>